<?xml version="1.0" encoding="UTF-8" standalone="no"?>
<!-- Created with Inkscape (http://www.inkscape.org/) -->

<svg
   xmlns:dc="http://purl.org/dc/elements/1.1/"
   xmlns:cc="http://creativecommons.org/ns#"
   xmlns:rdf="http://www.w3.org/1999/02/22-rdf-syntax-ns#"
   xmlns:svg="http://www.w3.org/2000/svg"
   xmlns="http://www.w3.org/2000/svg"
   xmlns:xlink="http://www.w3.org/1999/xlink"
   xmlns:sodipodi="http://sodipodi.sourceforge.net/DTD/sodipodi-0.dtd"
   xmlns:inkscape="http://www.inkscape.org/namespaces/inkscape"
   width="48"
   height="48"
   id="svg2"
   version="1.1"
   inkscape:version="0.91 r13725"
   sodipodi:docname="gtk-properties.svg">
  <defs
     id="defs4">
    <linearGradient
       id="linearGradient3905">
      <stop
         style="stop-color:#bebebe;stop-opacity:1;"
         offset="0"
         id="stop3907" />
      <stop
         style="stop-color:#969696;stop-opacity:1;"
         offset="1"
         id="stop3909" />
    </linearGradient>
    <linearGradient
       id="linearGradient3897">
      <stop
         style="stop-color:#a0a0a0;stop-opacity:1;"
         offset="0"
         id="stop3899" />
      <stop
         style="stop-color:#c8c8c8;stop-opacity:1;"
         offset="1"
         id="stop3901" />
    </linearGradient>
    <linearGradient
       id="linearGradient3889">
      <stop
         style="stop-color:#c8c8c8;stop-opacity:1;"
         offset="0"
         id="stop3891" />
      <stop
         style="stop-color:#f0f0f0;stop-opacity:1;"
         offset="1"
         id="stop3893" />
    </linearGradient>
    <linearGradient
       id="linearGradient3619">
      <stop
         id="stop3621"
         offset="0"
         style="stop-color:#787878;stop-opacity:1;" />
      <stop
         id="stop3623"
         offset="1"
         style="stop-color:#f0f0f0;stop-opacity:1;" />
    </linearGradient>
    <linearGradient
       inkscape:collect="always"
       xlink:href="#linearGradient3905"
       id="linearGradient3928"
       gradientUnits="userSpaceOnUse"
       x1="27.271198"
       y1="1037.2908"
       x2="20.103802"
       y2="1020.3265" />
    <linearGradient
       inkscape:collect="always"
       xlink:href="#linearGradient3905"
       id="linearGradient3930"
       gradientUnits="userSpaceOnUse"
       x1="8.1821079"
       y1="1006.8768"
       x2="37.545048"
       y2="1046.9237" />
    <linearGradient
       inkscape:collect="always"
       xlink:href="#linearGradient3889"
       id="linearGradient3932"
       gradientUnits="userSpaceOnUse"
       x1="34.732872"
       y1="1043.5144"
       x2="13.726188"
       y2="1012.9573" />
    <linearGradient
       inkscape:collect="always"
       xlink:href="#linearGradient3619"
       id="linearGradient3934"
       gradientUnits="userSpaceOnUse"
       gradientTransform="matrix(0.9179404,0,0,0.9179404,1.9550876,84.415676)"
       x1="24"
       y1="1013.8623"
       x2="24"
       y2="1042.8473" />
    <linearGradient
       inkscape:collect="always"
       xlink:href="#linearGradient3897"
       id="linearGradient3936"
       gradientUnits="userSpaceOnUse"
       x1="19.688168"
       y1="1020.5555"
       x2="29.798376"
       y2="1037.223" />
  </defs>
  <sodipodi:namedview
     id="base"
     pagecolor="#ffffff"
     bordercolor="#666666"
     borderopacity="1.0"
     inkscape:pageopacity="0.0"
     inkscape:pageshadow="2"
     inkscape:zoom="3.959798"
     inkscape:cx="21.230576"
     inkscape:cy="3.6599542"
     inkscape:document-units="px"
     inkscape:current-layer="layer1"
     showgrid="false"
     inkscape:window-width="1280"
     inkscape:window-height="714"
     inkscape:window-x="0"
     inkscape:window-y="25"
     inkscape:window-maximized="1" />
  <metadata
     id="metadata7">
    <rdf:RDF>
      <cc:Work
         rdf:about="">
        <dc:format>image/svg+xml</dc:format>
        <dc:type
           rdf:resource="http://purl.org/dc/dcmitype/StillImage" />
        <dc:title />
      </cc:Work>
    </rdf:RDF>
  </metadata>
  <g
     inkscape:label="Livello 1"
     inkscape:groupmode="layer"
     id="layer1"
     transform="translate(0,-1004.3622)">
    <g
       id="g3921"
       transform="matrix(1.0893953,0,0,1.0893953,-2.1454872,-91.930747)">
      <path
         style="fill:url(#linearGradient3928);fill-opacity:1;stroke:none"
         d="m 24,1016.8948 c -2.936307,0 -5.860128,1.1326 -8.100455,3.373 -4.480653,4.4807 -4.480653,11.7206 0,16.2013 4.480653,4.4807 11.720256,4.4807 16.200909,0 4.480654,-4.4807 4.480654,-11.7205 0,-16.2012 -2.240326,-2.2404 -5.164147,-3.3731 -8.100454,-3.3731 z m 0,5.0993 c 1.631281,0 3.270381,0.6145 4.515007,1.8592 2.489253,2.4892 2.489253,6.5409 0,9.0303 -2.489251,2.4891 -6.540763,2.4891 -9.030014,0 -2.489253,-2.4894 -2.489253,-6.5411 0,-9.0303 1.244625,-1.2447 2.883725,-1.8592 4.515007,-1.8592 z"
         id="path3628" />
      <path
         style="fill:url(#linearGradient3930);fill-opacity:1;stroke:none"
         d="m 27.532038,1006.8769 c 0.779453,0 1.406954,0.6276 1.406954,1.4071 l 0,1.993 c 1.514521,0.4084 3.003724,1.0239 4.396728,1.8173 l 1.37764,-1.3777 c 0.551158,-0.5513 1.442029,-0.5513 1.993184,0 l 4.953646,4.9537 c 0.551156,0.5512 0.551156,1.4419 0,1.9932 l -1.377641,1.3776 c 0.810177,1.4108 1.432658,2.8893 1.846626,4.426 l 1.963871,0 c 0.779453,0 1.406954,0.6275 1.406954,1.4069 l 0,7.0057 c 0,0.7793 -0.627501,1.4069 -1.406954,1.4069 l -1.963871,0 c -0.412629,1.5316 -1.040352,3.0191 -1.846626,4.426 l 1.377641,1.4069 c 0.551156,0.5511 0.551156,1.4421 0,1.9932 l -4.953646,4.9536 c -0.551155,0.5512 -1.442026,0.5512 -1.993184,0 l -1.37764,-1.4068 c -1.396036,0.799 -2.877644,1.4348 -4.396728,1.8466 l 0,1.9344 c 0,0.7795 -0.627501,1.4071 -1.406954,1.4071 l -7.034765,0 c -0.779452,0 -1.406952,-0.6276 -1.406952,-1.4071 l 0,-1.9344 c -1.527016,-0.414 -3.023569,-1.0414 -4.426041,-1.8466 l -1.406952,1.4068 c -0.551155,0.5512 -1.442028,0.5512 -1.993183,0 l -4.9536474,-4.9536 c -0.551156,-0.5511 -0.551156,-1.4421 0,-1.9932 l 1.4362645,-1.4361 c -0.8000132,-1.4003 -1.4361538,-2.8731 -1.8466257,-4.3968 l -1.9931835,0 C 3.127501,1033.2866 2.5,1032.659 2.5,1031.8797 l 0,-7.0057 c 0,-0.7794 0.627501,-1.4069 1.4069529,-1.4069 l 1.9931835,0 c 0.4118309,-1.5288 1.0426674,-2.9923 1.8466257,-4.3967 l -1.4362645,-1.4069 c -0.551156,-0.5513 -0.551156,-1.442 0,-1.9932 l 4.9536474,-4.9537 c 0.551155,-0.5513 1.442028,-0.5513 1.993183,0 l 1.406952,1.407 c 1.403193,-0.8034 2.898972,-1.4347 4.426041,-1.8466 l 0,-1.9931 c 0,-0.7795 0.6275,-1.4071 1.406952,-1.4071 l 7.034765,0 z m -3.517383,14.4798 c -1.800353,0 -3.609334,0.6781 -4.982958,2.0519 -2.747247,2.7473 -2.747247,7.2187 0,9.9659 2.747247,2.7474 7.218671,2.7474 9.965917,0 2.747247,-2.7472 2.747247,-7.2186 0,-9.966 -1.373623,-1.3737 -3.182604,-2.0519 -4.982959,-2.0519 z"
         id="path3627" />
      <path
         id="rect3126"
         d="m 27.456619,1007.3356 c 0.762809,0 1.376911,0.6141 1.376911,1.3769 l 0,1.9507 c 1.482183,0.3997 2.939587,1.0018 4.302846,1.7785 l 1.348225,-1.3482 c 0.539387,-0.5395 1.411236,-0.5395 1.950623,0 l 4.847873,4.8478 c 0.539387,0.5394 0.539387,1.4113 0,1.9506 l -1.348225,1.3483 c 0.792876,1.3807 1.402065,2.8276 1.807195,4.3315 l 1.921938,0 c 0.762808,0 1.37691,0.6141 1.37691,1.3769 l 0,6.8559 c 0,0.7628 -0.614102,1.3769 -1.37691,1.3769 l -1.921938,0 c -0.403818,1.499 -1.018138,2.9547 -1.807195,4.3315 l 1.348225,1.3769 c 0.539387,0.5394 0.539387,1.4113 0,1.9507 l -4.847873,4.8479 c -0.539387,0.5394 -1.411236,0.5394 -1.950623,0 l -1.348225,-1.3769 c -1.366227,0.782 -2.816198,1.4042 -4.302846,1.8071 l 0,1.8933 c 0,0.7628 -0.614102,1.3769 -1.376911,1.3769 l -6.884553,0 c -0.762808,0 -1.37691,-0.6141 -1.37691,-1.3769 l 0,-1.8933 c -1.49441,-0.405 -2.959007,-1.0191 -4.331532,-1.8071 l -1.37691,1.3769 c -0.539387,0.5394 -1.411236,0.5394 -1.950623,0 l -4.8478732,-4.8479 c -0.5393873,-0.5394 -0.5393873,-1.4113 0,-1.9507 l 1.4055962,-1.4055 c -0.7829306,-1.3705 -1.4054879,-2.8118 -1.8071951,-4.3029 l -1.9506234,0 c -0.7628085,0 -1.3769106,-0.6141 -1.3769106,-1.3769 l 0,-6.8559 c 0,-0.7628 0.6141021,-1.3769 1.3769106,-1.3769 l 1.9506234,0 c 0.4030373,-1.4962 1.0204036,-2.9284 1.8071951,-4.3028 l -1.4055962,-1.377 c -0.5393873,-0.5393 -0.5393873,-1.4112 0,-1.9506 l 4.8478732,-4.8478 c 0.539387,-0.5395 1.411236,-0.5395 1.950623,0 l 1.37691,1.3769 c 1.373231,-0.7863 2.837072,-1.4042 4.331532,-1.8072 l 0,-1.9507 c 0,-0.7628 0.614102,-1.3769 1.37691,-1.3769 l 6.884553,0 z m -3.442276,14.1707 c -1.761911,0 -3.532266,0.6637 -4.876559,2.008 -2.688585,2.6887 -2.688585,7.0646 0,9.7531 2.688585,2.6887 7.064532,2.6887 9.753117,0 2.688585,-2.6885 2.688585,-7.0644 0,-9.7531 -1.344292,-1.3443 -3.114648,-2.008 -4.876558,-2.008 z"
         style="fill:url(#linearGradient3932);fill-opacity:1;stroke:none" />
      <path
         style="fill:url(#linearGradient3934);fill-opacity:1;stroke:none"
         d="m 23.985658,1015.0808 c -3.406662,0 -6.798837,1.3141 -9.398033,3.9131 -5.198391,5.1981 -5.198391,13.5968 0,18.795 5.198391,5.198 13.597675,5.198 18.796066,0 5.19839,-5.1982 5.19839,-13.5969 0,-18.795 -2.599196,-2.599 -5.991372,-3.9131 -9.398033,-3.9131 z m 0,5.9158 c 1.892589,0 3.79425,0.7129 5.238247,2.1568 2.887995,2.8878 2.887995,7.5881 0,10.4759 -2.887995,2.8877 -7.5885,2.8877 -10.476495,0 -2.887995,-2.8878 -2.887995,-7.5881 0,-10.4759 1.443997,-1.4439 3.345658,-2.1568 5.238248,-2.1568 z"
         id="path3615" />
      <path
         id="path4017"
         d="m 23.985657,1015.9987 c -3.171439,0 -6.329393,1.2233 -8.749119,3.6431 -4.839454,4.8394 -4.839454,12.6587 0,17.4982 4.839453,4.8394 12.658785,4.8394 17.498239,0 4.839453,-4.8395 4.839453,-12.6588 0,-17.4982 -2.419727,-2.4198 -5.577681,-3.6431 -8.74912,-3.6431 z m 0,5.5076 c 1.761911,0 3.532266,0.6637 4.876559,2.008 2.688585,2.6886 2.688585,7.0645 0,9.7531 -2.688585,2.6886 -7.064532,2.6886 -9.753117,0 -2.688585,-2.6886 -2.688585,-7.0645 0,-9.7531 1.344292,-1.3443 3.114648,-2.008 4.876558,-2.008 z"
         style="fill:url(#linearGradient3936);fill-opacity:1;stroke:none" />
    </g>
  </g>
</svg>
