<?xml version="1.0" encoding="UTF-8" standalone="no"?>
<!-- Created with Inkscape (http://www.inkscape.org/) -->

<svg
   xmlns:dc="http://purl.org/dc/elements/1.1/"
   xmlns:cc="http://creativecommons.org/ns#"
   xmlns:rdf="http://www.w3.org/1999/02/22-rdf-syntax-ns#"
   xmlns:svg="http://www.w3.org/2000/svg"
   xmlns="http://www.w3.org/2000/svg"
   xmlns:xlink="http://www.w3.org/1999/xlink"
   xmlns:sodipodi="http://sodipodi.sourceforge.net/DTD/sodipodi-0.dtd"
   xmlns:inkscape="http://www.inkscape.org/namespaces/inkscape"
   width="48"
   height="48"
   id="svg2"
   version="1.1"
   inkscape:version="0.91 r13725"
   sodipodi:docname="gtk-connect.svg">
  <defs
     id="defs4">
    <linearGradient
       id="linearGradient3726">
      <stop
         style="stop-color:#ffffff;stop-opacity:1;"
         offset="0"
         id="stop3728" />
      <stop
         style="stop-color:#dcdcdc;stop-opacity:1;"
         offset="1"
         id="stop3730" />
    </linearGradient>
    <linearGradient
       id="linearGradient3593">
      <stop
         style="stop-color:#5785a6;stop-opacity:1;"
         offset="0"
         id="stop3595" />
      <stop
         style="stop-color:#113f4c;stop-opacity:1;"
         offset="1"
         id="stop3597" />
    </linearGradient>
    <linearGradient
       id="linearGradient3635-4">
      <stop
         style="stop-color:#c8c8c8;stop-opacity:1;"
         offset="0"
         id="stop3637-6" />
      <stop
         style="stop-color:#969696;stop-opacity:1;"
         offset="1"
         id="stop3639-9" />
    </linearGradient>
    <linearGradient
       id="linearGradient3748"
       inkscape:collect="always">
      <stop
         id="stop3750"
         offset="0"
         style="stop-color:#333333;stop-opacity:1;" />
      <stop
         id="stop3752"
         offset="1"
         style="stop-color:#333333;stop-opacity:0;" />
    </linearGradient>
    <radialGradient
       inkscape:collect="always"
       xlink:href="#linearGradient3748"
       id="radialGradient3475"
       gradientUnits="userSpaceOnUse"
       gradientTransform="matrix(1,0,0,0.25316456,0,32.647379)"
       cx="30.714285"
       cy="43.714287"
       fx="30.714285"
       fy="43.714287"
       r="14.107142" />
    <radialGradient
       inkscape:collect="always"
       xlink:href="#linearGradient3593"
       id="radialGradient3529"
       gradientUnits="userSpaceOnUse"
       gradientTransform="matrix(0.65585463,1.1359792,1.0277714,-0.59338113,-1085.1369,1586.1444)"
       cx="24.000017"
       cy="1013.6392"
       fx="24.000017"
       fy="1013.6392"
       r="21.515625" />
    <linearGradient
       inkscape:collect="always"
       xlink:href="#linearGradient3726"
       id="linearGradient3531"
       gradientUnits="userSpaceOnUse"
       x1="24.750298"
       y1="1014.7472"
       x2="24.750298"
       y2="1033.9" />
    <linearGradient
       inkscape:collect="always"
       xlink:href="#linearGradient3726"
       id="linearGradient3533"
       gradientUnits="userSpaceOnUse"
       x1="24.750298"
       y1="1014.7472"
       x2="24.750298"
       y2="1033.9" />
    <linearGradient
       inkscape:collect="always"
       xlink:href="#linearGradient3635-4"
       id="linearGradient3536"
       gradientUnits="userSpaceOnUse"
       gradientTransform="matrix(0.72779691,0,0,0.72779691,12.693344,1018.5424)"
       x1="30.011627"
       y1="5.0048108"
       x2="30"
       y2="45" />
  </defs>
  <sodipodi:namedview
     id="base"
     pagecolor="#ffffff"
     bordercolor="#666666"
     borderopacity="1.0"
     inkscape:pageopacity="0.0"
     inkscape:pageshadow="2"
     inkscape:zoom="3.959798"
     inkscape:cx="8.4666934"
     inkscape:cy="-1.8770312"
     inkscape:document-units="px"
     inkscape:current-layer="layer1"
     showgrid="false"
     inkscape:window-width="1280"
     inkscape:window-height="712"
     inkscape:window-x="0"
     inkscape:window-y="25"
     inkscape:window-maximized="1" />
  <metadata
     id="metadata7">
    <rdf:RDF>
      <cc:Work
         rdf:about="">
        <dc:format>image/svg+xml</dc:format>
        <dc:type
           rdf:resource="http://purl.org/dc/dcmitype/StillImage" />
        <dc:title />
      </cc:Work>
    </rdf:RDF>
  </metadata>
  <g
     inkscape:label="Livello 1"
     inkscape:groupmode="layer"
     id="layer1"
     transform="translate(0,-1004.3622)">
    <path
       sodipodi:type="arc"
       style="fill:url(#radialGradient3475);fill-opacity:1;stroke:none"
       id="path2974"
       sodipodi:cx="30.714285"
       sodipodi:cy="43.714287"
       sodipodi:rx="14.107142"
       sodipodi:ry="3.5714285"
       d="m 44.821427,43.714287 a 14.107142,3.5714285 0 1 1 -28.214285,0 14.107142,3.5714285 0 1 1 28.214285,0 z"
       transform="matrix(1.0696203,0,0,1.0696203,1.683091,1002.358)" />
    <path
       style="font-size:medium;font-style:normal;font-variant:normal;font-weight:normal;font-stretch:normal;text-indent:0;text-align:start;text-decoration:none;line-height:normal;letter-spacing:normal;word-spacing:normal;text-transform:none;direction:ltr;block-progression:tb;writing-mode:lr-tb;text-anchor:start;color:#000000;fill:url(#linearGradient3536);fill-opacity:1;stroke:none;stroke-width:1;marker:none;visibility:visible;display:inline;overflow:visible;enable-background:accumulate;font-family:'A.C.M.E. Secret Agent';-inkscape-font-specification:'A.C.M.E. Secret Agent'"
       d="m 34.535713,1022.1849 c -3.198187,0 -5.822375,2.434 -5.822375,5.4584 0.02395,1.0554 0.10931,2.3319 0.727797,5.1627 l 0.02275,0.023 0,0.021 c 0.115121,0.3453 0.363998,0.6939 0.682309,1.0918 0.290416,0.363 0.642103,0.7509 1.000721,1.1371 0.114639,0.8395 0.13958,1.6349 0,2.5473 -0.987879,0.7623 -2.744425,1.3961 -4.321293,2.0243 -0.815957,0.325 -1.577154,0.66 -2.160648,1.0462 -0.56699,0.3752 -1.001187,0.846 -1.023463,1.4556 l -0.02275,0 0,0.046 -0.727797,5.4129 0,0.021 0,0.023 c 0,0.6215 0.424368,1.1424 1.046208,1.5694 0.621839,0.4268 1.480032,0.7883 2.524545,1.0917 2.089027,0.6064 4.930327,0.9779 8.073997,0.9779 3.14367,0 5.984969,-0.3715 8.073996,-0.9779 1.044516,-0.3034 1.902707,-0.6649 2.524547,-1.0917 0.621839,-0.427 1.046207,-0.9479 1.046207,-1.5694 l 0,-0.023 0,-0.021 -0.727797,-5.4129 0,-0.046 -0.02275,0 c -0.01625,-0.2797 -0.115986,-0.541 -0.295666,-0.7506 -0.190963,-0.2229 -0.459085,-0.4093 -0.75054,-0.5914 -0.582912,-0.364 -1.343703,-0.6868 -2.160648,-1.0235 -1.575569,-0.6491 -3.340761,-1.3463 -4.321294,-2.1378 -0.08731,-0.8098 -0.08485,-1.6049 0,-2.4107 0.348933,-0.4128 0.704102,-0.8343 1.000721,-1.2283 0.323884,-0.4303 0.585574,-0.8014 0.705053,-1.16 l 0,-0.021 0.02275,0 c 0.697038,-2.9464 0.690949,-4.0797 0.727795,-5.1629 l 0,-0.023 c 0,-3.0244 -2.624186,-5.4584 -5.822374,-5.4584 l 0,10e-5 z"
       id="path3766"
       sodipodi:nodetypes="cccccsccssccccccsssssccccccsssccsccccccc" />
    <g
       id="g3519"
       transform="matrix(0.74087256,0,0,0.74087256,38.91766,261.67563)">
      <path
         id="path2816"
         d="m -30.372768,1005.5899 c 10.355868,0 18.75,7.0366 18.75,15.7188 0,2.358 -0.640373,4.5862 -1.75,6.5937 l 7.2812501,17.875 -16.8437501,-10.0312 c -2.278634,0.8255 -4.797371,1.2812 -7.4375,1.2812 -10.355868,0 -18.75,-7.0366 -18.75,-15.7187 0,-8.6822 8.394132,-15.7188 18.75,-15.7188 z"
         style="fill:url(#radialGradient3529);fill-opacity:1;fill-rule:nonzero;stroke:none" />
      <g
         transform="translate(-3.2497014,0)"
         id="g3507">
        <g
           id="g3790"
           style="font-size:25px;font-style:normal;font-variant:normal;font-weight:normal;font-stretch:normal;fill:#7fadce;fill-opacity:1;stroke:none;font-family:Calibri;-inkscape-font-specification:Calibri"
           transform="translate(-53.10774,-2.3214285)">
          <path
             id="path3792"
             style="fill:#7fadce;fill-opacity:1"
             d="m 34.8577,1021.5464 c -2e-5,0.5534 -0.03664,1.119 -0.109863,1.6968 -0.06512,0.5778 -0.174987,1.1393 -0.32959,1.6845 -0.154642,0.5453 -0.358092,1.0621 -0.610351,1.5503 -0.252298,0.4802 -0.561542,0.9034 -0.927735,1.2696 -0.366229,0.3662 -0.793474,0.6551 -1.281738,0.8667 -0.48016,0.2034 -1.033545,0.3051 -1.660156,0.3051 -0.333674,0 -0.642919,-0.037 -0.927735,-0.1098 -0.284844,-0.081 -0.537123,-0.1953 -0.756836,-0.3418 -0.21974,-0.1465 -0.406914,-0.3337 -0.561523,-0.5615 -0.146497,-0.236 -0.248222,-0.5046 -0.305176,-0.8057 -0.325533,0.3255 -0.642916,0.6063 -0.952148,0.8423 -0.301118,0.2278 -0.598156,0.415 -0.891113,0.5615 -0.29298,0.1465 -0.581879,0.2523 -0.8667,0.3174 -0.276702,0.065 -0.549326,0.098 -0.817871,0.098 -0.349944,0 -0.659188,-0.033 -0.927734,-0.098 -0.268563,-0.073 -0.508634,-0.175 -0.720215,-0.3052 -0.203458,-0.1383 -0.378425,-0.3052 -0.524902,-0.5005 -0.146492,-0.1953 -0.268562,-0.415 -0.366211,-0.6592 -0.09766,-0.2441 -0.166836,-0.5127 -0.20752,-0.8056 -0.0407,-0.293 -0.06104,-0.6104 -0.06104,-0.9522 -6e-6,-0.3499 0.02848,-0.7487 0.08545,-1.1963 0.05696,-0.4557 0.150547,-0.9236 0.280762,-1.4038 0.130201,-0.4801 0.309238,-0.948 0.537109,-1.4038 0.227857,-0.4638 0.508619,-0.8748 0.842285,-1.2329 0.341789,-0.3662 0.74462,-0.6592 1.208497,-0.8789 0.463857,-0.2279 1.005035,-0.3418 1.623535,-0.3418 0.260405,0 0.508615,0.033 0.744629,0.098 0.244128,0.057 0.476062,0.1505 0.6958,0.2807 0.219714,0.1302 0.431303,0.293 0.634766,0.4883 0.203437,0.1953 0.410957,0.4273 0.622559,0.6958 l 0.207519,-1.0742 c 0.03254,-0.1139 0.10578,-0.1994 0.219727,-0.2564 0.113918,-0.057 0.325506,-0.085 0.634765,-0.085 0.14647,0 0.26854,0.01 0.366211,0.024 0.105779,0.016 0.187159,0.041 0.244141,0.073 0.05695,0.024 0.09357,0.057 0.109863,0.098 0.0244,0.041 0.02847,0.09 0.01221,0.1465 l -1.086426,5.6152 c -0.130222,0.708 -0.09767,1.2329 0.09766,1.5747 0.195298,0.3337 0.565577,0.5005 1.11084,0.5005 0.333642,0 0.634749,-0.081 0.90332,-0.2441 0.268538,-0.1709 0.50454,-0.3988 0.708008,-0.6836 0.203433,-0.2848 0.374331,-0.6144 0.512695,-0.9888 0.138328,-0.3825 0.252261,-0.7812 0.341797,-1.1963 0.0895,-0.4232 0.154604,-0.8545 0.195312,-1.2939 0.04067,-0.4395 0.06102,-0.8626 0.06104,-1.2696 -1.9e-5,-0.708 -0.09768,-1.3793 -0.292969,-2.0141 -0.187193,-0.6429 -0.512713,-1.2044 -0.976563,-1.6846 -0.463884,-0.4883 -1.086441,-0.8748 -1.867676,-1.1597 -0.773126,-0.2929 -1.745618,-0.4394 -2.91748,-0.4394 -0.960298,0 -1.814789,0.1058 -2.563477,0.3174 -0.748706,0.2116 -1.407885,0.5005 -1.977539,0.8667 -0.569668,0.3581 -1.057949,0.7731 -1.464843,1.2451 -0.406907,0.472 -0.752773,0.9766 -1.037598,1.5137 -0.276698,0.5289 -0.500493,1.0742 -0.671387,1.6357 -0.170903,0.5534 -0.301111,1.0905 -0.390625,1.6113 -0.08952,0.5127 -0.150557,0.9969 -0.183105,1.4527 -0.02442,0.4557 -0.03663,0.8423 -0.03662,1.1596 -4e-6,0.9034 0.101721,1.7294 0.305175,2.4781 0.211585,0.7487 0.573726,1.3956 1.086426,1.9409 0.51269,0.5452 1.200352,0.9684 2.062989,1.2695 0.862621,0.3011 1.949046,0.4517 3.259277,0.4517 0.594064,0 1.131173,-0.037 1.611328,-0.1099 0.48013,-0.065 0.895169,-0.1383 1.245117,-0.2197 0.358059,-0.073 0.646959,-0.1465 0.866699,-0.2197 0.219712,-0.065 0.370266,-0.098 0.451661,-0.098 0.04881,0 0.0895,0.012 0.12207,0.037 0.04068,0.033 0.06916,0.077 0.08545,0.1343 0.0244,0.065 0.04068,0.1424 0.04883,0.2319 0.0081,0.098 0.01219,0.2157 0.01221,0.354 -1.5e-5,0.114 -0.0041,0.2076 -0.01221,0.2808 -1.5e-5,0.073 -0.0082,0.1383 -0.02441,0.1953 -0.01629,0.065 -0.0407,0.1221 -0.07324,0.1709 -0.02443,0.049 -0.06105,0.094 -0.109863,0.1343 -0.04884,0.041 -0.191258,0.1017 -0.427246,0.1831 -0.227879,0.081 -0.541193,0.1628 -0.939942,0.2441 -0.390638,0.081 -0.850436,0.1506 -1.379394,0.2076 -0.528983,0.057 -1.110851,0.085 -1.745606,0.085 -1.521819,0 -2.811694,-0.179 -3.869629,-0.5371 -1.04981,-0.3581 -1.90837,-0.8708 -2.575683,-1.5381 -0.659183,-0.6673 -1.135257,-1.4689 -1.428223,-2.4048 -0.292971,-0.9358 -0.439455,-1.9816 -0.439453,-3.1372 -2e-6,-0.4232 0.02034,-0.9074 0.06104,-1.4526 0.04883,-0.5534 0.134275,-1.1393 0.256348,-1.7578 0.130206,-0.6267 0.309242,-1.2614 0.537109,-1.9043 0.227862,-0.6511 0.52083,-1.2858 0.878906,-1.9043 0.366207,-0.6185 0.80566,-1.2004 1.31836,-1.7456 0.520827,-0.5534 1.131178,-1.0335 1.831054,-1.4405 0.708001,-0.415 1.513664,-0.7405 2.416993,-0.9765 0.911448,-0.236 1.940906,-0.354 3.088379,-0.354 1.334621,0 2.48615,0.1627 3.454589,0.4883 0.976546,0.3173 1.782209,0.769 2.416993,1.3549 0.634746,0.586 1.106751,1.3021 1.416015,2.1485 0.309225,0.8382 0.463847,1.7741 0.463867,2.8076 m -7.080078,0.7934 c -0.309257,-0.5208 -0.62664,-0.9195 -0.952148,-1.1962 -0.325533,-0.2767 -0.695812,-0.4151 -1.11084,-0.4151 -0.341808,0 -0.651052,0.085 -0.927734,0.2564 -0.276703,0.1627 -0.516774,0.3784 -0.720215,0.6469 -0.20346,0.2605 -0.378427,0.5575 -0.524903,0.8911 -0.138355,0.3337 -0.252287,0.6755 -0.341796,1.0254 -0.08953,0.35 -0.154631,0.6918 -0.195313,1.0254 -0.03256,0.3256 -0.04884,0.6145 -0.04883,0.8667 -8e-6,0.6022 0.105786,1.0661 0.317383,1.3916 0.219717,0.3256 0.585928,0.4883 1.098633,0.4883 0.195302,0 0.394683,-0.033 0.598144,-0.098 0.20344,-0.073 0.419097,-0.1791 0.646973,-0.3174 0.227853,-0.1465 0.467924,-0.3337 0.720215,-0.5615 0.260404,-0.236 0.545235,-0.5127 0.854492,-0.8301 l 0.585937,-3.1739 m -13.134765,-7.2021 0,0" />
        </g>
        <g
           id="g3782"
           style="font-size:25px;font-style:normal;font-variant:normal;font-weight:normal;font-stretch:normal;fill:#1b496a;fill-opacity:1;stroke:none;font-family:Calibri;-inkscape-font-specification:Calibri"
           transform="translate(-53.10774,-3.0357143)">
          <path
             id="path3784"
             style="fill:#1b496a;fill-opacity:1"
             d="m 34.8577,1021.5464 c -2e-5,0.5534 -0.03664,1.119 -0.109863,1.6968 -0.06512,0.5778 -0.174987,1.1393 -0.32959,1.6845 -0.154642,0.5453 -0.358092,1.0621 -0.610351,1.5503 -0.252298,0.4802 -0.561542,0.9034 -0.927735,1.2696 -0.366229,0.3662 -0.793474,0.6551 -1.281738,0.8667 -0.48016,0.2034 -1.033545,0.3051 -1.660156,0.3051 -0.333674,0 -0.642919,-0.037 -0.927735,-0.1098 -0.284844,-0.081 -0.537123,-0.1953 -0.756836,-0.3418 -0.21974,-0.1465 -0.406914,-0.3337 -0.561523,-0.5615 -0.146497,-0.236 -0.248222,-0.5046 -0.305176,-0.8057 -0.325533,0.3255 -0.642916,0.6063 -0.952148,0.8423 -0.301118,0.2278 -0.598156,0.415 -0.891113,0.5615 -0.29298,0.1465 -0.581879,0.2523 -0.8667,0.3174 -0.276702,0.065 -0.549326,0.098 -0.817871,0.098 -0.349944,0 -0.659188,-0.033 -0.927734,-0.098 -0.268563,-0.073 -0.508634,-0.175 -0.720215,-0.3052 -0.203458,-0.1383 -0.378425,-0.3052 -0.524902,-0.5005 -0.146492,-0.1953 -0.268562,-0.415 -0.366211,-0.6592 -0.09766,-0.2441 -0.166836,-0.5127 -0.20752,-0.8056 -0.0407,-0.293 -0.06104,-0.6104 -0.06104,-0.9522 -6e-6,-0.3499 0.02848,-0.7487 0.08545,-1.1963 0.05696,-0.4557 0.150547,-0.9236 0.280762,-1.4038 0.130201,-0.4801 0.309238,-0.948 0.537109,-1.4038 0.227857,-0.4638 0.508619,-0.8748 0.842285,-1.2329 0.341789,-0.3662 0.74462,-0.6592 1.208497,-0.8789 0.463857,-0.2279 1.005035,-0.3418 1.623535,-0.3418 0.260405,0 0.508615,0.033 0.744629,0.098 0.244128,0.057 0.476062,0.1505 0.6958,0.2807 0.219714,0.1302 0.431303,0.293 0.634766,0.4883 0.203437,0.1953 0.410957,0.4273 0.622559,0.6958 l 0.207519,-1.0742 c 0.03254,-0.1139 0.10578,-0.1994 0.219727,-0.2564 0.113918,-0.057 0.325506,-0.085 0.634765,-0.085 0.14647,0 0.26854,0.01 0.366211,0.024 0.105779,0.016 0.187159,0.041 0.244141,0.073 0.05695,0.024 0.09357,0.057 0.109863,0.098 0.0244,0.041 0.02847,0.09 0.01221,0.1465 l -1.086426,5.6152 c -0.130222,0.708 -0.09767,1.2329 0.09766,1.5747 0.195298,0.3337 0.565577,0.5005 1.11084,0.5005 0.333642,0 0.634749,-0.081 0.90332,-0.2441 0.268538,-0.1709 0.50454,-0.3988 0.708008,-0.6836 0.203433,-0.2848 0.374331,-0.6144 0.512695,-0.9888 0.138328,-0.3825 0.252261,-0.7812 0.341797,-1.1963 0.0895,-0.4232 0.154604,-0.8545 0.195312,-1.2939 0.04067,-0.4395 0.06102,-0.8626 0.06104,-1.2696 -1.9e-5,-0.708 -0.09768,-1.3793 -0.292969,-2.0141 -0.187193,-0.6429 -0.512713,-1.2044 -0.976563,-1.6846 -0.463884,-0.4883 -1.086441,-0.8748 -1.867676,-1.1597 -0.773126,-0.2929 -1.745618,-0.4394 -2.91748,-0.4394 -0.960298,0 -1.814789,0.1058 -2.563477,0.3174 -0.748706,0.2116 -1.407885,0.5005 -1.977539,0.8667 -0.569668,0.3581 -1.057949,0.7731 -1.464843,1.2451 -0.406907,0.472 -0.752773,0.9766 -1.037598,1.5137 -0.276698,0.5289 -0.500493,1.0742 -0.671387,1.6357 -0.170903,0.5534 -0.301111,1.0905 -0.390625,1.6113 -0.08952,0.5127 -0.150557,0.9969 -0.183105,1.4527 -0.02442,0.4557 -0.03663,0.8423 -0.03662,1.1596 -4e-6,0.9034 0.101721,1.7294 0.305175,2.4781 0.211585,0.7487 0.573726,1.3956 1.086426,1.9409 0.51269,0.5452 1.200352,0.9684 2.062989,1.2695 0.862621,0.3011 1.949046,0.4517 3.259277,0.4517 0.594064,0 1.131173,-0.037 1.611328,-0.1099 0.48013,-0.065 0.895169,-0.1383 1.245117,-0.2197 0.358059,-0.073 0.646959,-0.1465 0.866699,-0.2197 0.219712,-0.065 0.370266,-0.098 0.451661,-0.098 0.04881,0 0.0895,0.012 0.12207,0.037 0.04068,0.033 0.06916,0.077 0.08545,0.1343 0.0244,0.065 0.04068,0.1424 0.04883,0.2319 0.0081,0.098 0.01219,0.2157 0.01221,0.354 -1.5e-5,0.114 -0.0041,0.2076 -0.01221,0.2808 -1.5e-5,0.073 -0.0082,0.1383 -0.02441,0.1953 -0.01629,0.065 -0.0407,0.1221 -0.07324,0.1709 -0.02443,0.049 -0.06105,0.094 -0.109863,0.1343 -0.04884,0.041 -0.191258,0.1017 -0.427246,0.1831 -0.227879,0.081 -0.541193,0.1628 -0.939942,0.2441 -0.390638,0.081 -0.850436,0.1506 -1.379394,0.2076 -0.528983,0.057 -1.110851,0.085 -1.745606,0.085 -1.521819,0 -2.811694,-0.179 -3.869629,-0.5371 -1.04981,-0.3581 -1.90837,-0.8708 -2.575683,-1.5381 -0.659183,-0.6673 -1.135257,-1.4689 -1.428223,-2.4048 -0.292971,-0.9358 -0.439455,-1.9816 -0.439453,-3.1372 -2e-6,-0.4232 0.02034,-0.9074 0.06104,-1.4526 0.04883,-0.5534 0.134275,-1.1393 0.256348,-1.7578 0.130206,-0.6267 0.309242,-1.2614 0.537109,-1.9043 0.227862,-0.6511 0.52083,-1.2858 0.878906,-1.9043 0.366207,-0.6185 0.80566,-1.2004 1.31836,-1.7456 0.520827,-0.5534 1.131178,-1.0335 1.831054,-1.4405 0.708001,-0.415 1.513664,-0.7405 2.416993,-0.9765 0.911448,-0.236 1.940906,-0.354 3.088379,-0.354 1.334621,0 2.48615,0.1627 3.454589,0.4883 0.976546,0.3173 1.782209,0.769 2.416993,1.3549 0.634746,0.586 1.106751,1.3021 1.416015,2.1485 0.309225,0.8382 0.463847,1.7741 0.463867,2.8076 m -7.080078,0.7934 c -0.309257,-0.5208 -0.62664,-0.9195 -0.952148,-1.1962 -0.325533,-0.2767 -0.695812,-0.4151 -1.11084,-0.4151 -0.341808,0 -0.651052,0.085 -0.927734,0.2564 -0.276703,0.1627 -0.516774,0.3784 -0.720215,0.6469 -0.20346,0.2605 -0.378427,0.5575 -0.524903,0.8911 -0.138355,0.3337 -0.252287,0.6755 -0.341796,1.0254 -0.08953,0.35 -0.154631,0.6918 -0.195313,1.0254 -0.03256,0.3256 -0.04884,0.6145 -0.04883,0.8667 -8e-6,0.6022 0.105786,1.0661 0.317383,1.3916 0.219717,0.3256 0.585928,0.4883 1.098633,0.4883 0.195302,0 0.394683,-0.033 0.598144,-0.098 0.20344,-0.073 0.419097,-0.1791 0.646973,-0.3174 0.227853,-0.1465 0.467924,-0.3337 0.720215,-0.5615 0.260404,-0.236 0.545235,-0.5127 0.854492,-0.8301 l 0.585937,-3.1739 m -13.134765,-7.2021 0,0" />
        </g>
        <g
           style="font-size:25px;font-style:normal;font-variant:normal;font-weight:normal;font-stretch:normal;fill:url(#linearGradient3533);fill-opacity:1;stroke:none;font-family:Calibri;-inkscape-font-specification:Calibri"
           id="text3767"
           transform="translate(-53.10774,-2.6785714)">
          <path
             d="m 34.8577,1021.5464 c -2e-5,0.5534 -0.03664,1.119 -0.109863,1.6968 -0.06512,0.5778 -0.174987,1.1393 -0.32959,1.6845 -0.154642,0.5453 -0.358092,1.0621 -0.610351,1.5503 -0.252298,0.4802 -0.561542,0.9034 -0.927735,1.2696 -0.366229,0.3662 -0.793474,0.6551 -1.281738,0.8667 -0.48016,0.2034 -1.033545,0.3051 -1.660156,0.3051 -0.333674,0 -0.642919,-0.037 -0.927735,-0.1098 -0.284844,-0.081 -0.537123,-0.1953 -0.756836,-0.3418 -0.21974,-0.1465 -0.406914,-0.3337 -0.561523,-0.5615 -0.146497,-0.236 -0.248222,-0.5046 -0.305176,-0.8057 -0.325533,0.3255 -0.642916,0.6063 -0.952148,0.8423 -0.301118,0.2278 -0.598156,0.415 -0.891113,0.5615 -0.29298,0.1465 -0.581879,0.2523 -0.8667,0.3174 -0.276702,0.065 -0.549326,0.098 -0.817871,0.098 -0.349944,0 -0.659188,-0.033 -0.927734,-0.098 -0.268563,-0.073 -0.508634,-0.175 -0.720215,-0.3052 -0.203458,-0.1383 -0.378425,-0.3052 -0.524902,-0.5005 -0.146492,-0.1953 -0.268562,-0.415 -0.366211,-0.6592 -0.09766,-0.2441 -0.166836,-0.5127 -0.20752,-0.8056 -0.0407,-0.293 -0.06104,-0.6104 -0.06104,-0.9522 -6e-6,-0.3499 0.02848,-0.7487 0.08545,-1.1963 0.05696,-0.4557 0.150547,-0.9236 0.280762,-1.4038 0.130201,-0.4801 0.309238,-0.948 0.537109,-1.4038 0.227857,-0.4638 0.508619,-0.8748 0.842285,-1.2329 0.341789,-0.3662 0.74462,-0.6592 1.208497,-0.8789 0.463857,-0.2279 1.005035,-0.3418 1.623535,-0.3418 0.260405,0 0.508615,0.033 0.744629,0.098 0.244128,0.057 0.476062,0.1505 0.6958,0.2807 0.219714,0.1302 0.431303,0.293 0.634766,0.4883 0.203437,0.1953 0.410957,0.4273 0.622559,0.6958 l 0.207519,-1.0742 c 0.03254,-0.1139 0.10578,-0.1994 0.219727,-0.2564 0.113918,-0.057 0.325506,-0.085 0.634765,-0.085 0.14647,0 0.26854,0.01 0.366211,0.024 0.105779,0.016 0.187159,0.041 0.244141,0.073 0.05695,0.024 0.09357,0.057 0.109863,0.098 0.0244,0.041 0.02847,0.09 0.01221,0.1465 l -1.086426,5.6152 c -0.130222,0.708 -0.09767,1.2329 0.09766,1.5747 0.195298,0.3337 0.565577,0.5005 1.11084,0.5005 0.333642,0 0.634749,-0.081 0.90332,-0.2441 0.268538,-0.1709 0.50454,-0.3988 0.708008,-0.6836 0.203433,-0.2848 0.374331,-0.6144 0.512695,-0.9888 0.138328,-0.3825 0.252261,-0.7812 0.341797,-1.1963 0.0895,-0.4232 0.154604,-0.8545 0.195312,-1.2939 0.04067,-0.4395 0.06102,-0.8626 0.06104,-1.2696 -1.9e-5,-0.708 -0.09768,-1.3793 -0.292969,-2.0141 -0.187193,-0.6429 -0.512713,-1.2044 -0.976563,-1.6846 -0.463884,-0.4883 -1.086441,-0.8748 -1.867676,-1.1597 -0.773126,-0.2929 -1.745618,-0.4394 -2.91748,-0.4394 -0.960298,0 -1.814789,0.1058 -2.563477,0.3174 -0.748706,0.2116 -1.407885,0.5005 -1.977539,0.8667 -0.569668,0.3581 -1.057949,0.7731 -1.464843,1.2451 -0.406907,0.472 -0.752773,0.9766 -1.037598,1.5137 -0.276698,0.5289 -0.500493,1.0742 -0.671387,1.6357 -0.170903,0.5534 -0.301111,1.0905 -0.390625,1.6113 -0.08952,0.5127 -0.150557,0.9969 -0.183105,1.4527 -0.02442,0.4557 -0.03663,0.8423 -0.03662,1.1596 -4e-6,0.9034 0.101721,1.7294 0.305175,2.4781 0.211585,0.7487 0.573726,1.3956 1.086426,1.9409 0.51269,0.5452 1.200352,0.9684 2.062989,1.2695 0.862621,0.3011 1.949046,0.4517 3.259277,0.4517 0.594064,0 1.131173,-0.037 1.611328,-0.1099 0.48013,-0.065 0.895169,-0.1383 1.245117,-0.2197 0.358059,-0.073 0.646959,-0.1465 0.866699,-0.2197 0.219712,-0.065 0.370266,-0.098 0.451661,-0.098 0.04881,0 0.0895,0.012 0.12207,0.037 0.04068,0.033 0.06916,0.077 0.08545,0.1343 0.0244,0.065 0.04068,0.1424 0.04883,0.2319 0.0081,0.098 0.01219,0.2157 0.01221,0.354 -1.5e-5,0.114 -0.0041,0.2076 -0.01221,0.2808 -1.5e-5,0.073 -0.0082,0.1383 -0.02441,0.1953 -0.01629,0.065 -0.0407,0.1221 -0.07324,0.1709 -0.02443,0.049 -0.06105,0.094 -0.109863,0.1343 -0.04884,0.041 -0.191258,0.1017 -0.427246,0.1831 -0.227879,0.081 -0.541193,0.1628 -0.939942,0.2441 -0.390638,0.081 -0.850436,0.1506 -1.379394,0.2076 -0.528983,0.057 -1.110851,0.085 -1.745606,0.085 -1.521819,0 -2.811694,-0.179 -3.869629,-0.5371 -1.04981,-0.3581 -1.90837,-0.8708 -2.575683,-1.5381 -0.659183,-0.6673 -1.135257,-1.4689 -1.428223,-2.4048 -0.292971,-0.9358 -0.439455,-1.9816 -0.439453,-3.1372 -2e-6,-0.4232 0.02034,-0.9074 0.06104,-1.4526 0.04883,-0.5534 0.134275,-1.1393 0.256348,-1.7578 0.130206,-0.6267 0.309242,-1.2614 0.537109,-1.9043 0.227862,-0.6511 0.52083,-1.2858 0.878906,-1.9043 0.366207,-0.6185 0.80566,-1.2004 1.31836,-1.7456 0.520827,-0.5534 1.131178,-1.0335 1.831054,-1.4405 0.708001,-0.415 1.513664,-0.7405 2.416993,-0.9765 0.911448,-0.236 1.940906,-0.354 3.088379,-0.354 1.334621,0 2.48615,0.1627 3.454589,0.4883 0.976546,0.3173 1.782209,0.769 2.416993,1.3549 0.634746,0.586 1.106751,1.3021 1.416015,2.1485 0.309225,0.8382 0.463847,1.7741 0.463867,2.8076 m -7.080078,0.7934 c -0.309257,-0.5208 -0.62664,-0.9195 -0.952148,-1.1962 -0.325533,-0.2767 -0.695812,-0.4151 -1.11084,-0.4151 -0.341808,0 -0.651052,0.085 -0.927734,0.2564 -0.276703,0.1627 -0.516774,0.3784 -0.720215,0.6469 -0.20346,0.2605 -0.378427,0.5575 -0.524903,0.8911 -0.138355,0.3337 -0.252287,0.6755 -0.341796,1.0254 -0.08953,0.35 -0.154631,0.6918 -0.195313,1.0254 -0.03256,0.3256 -0.04884,0.6145 -0.04883,0.8667 -8e-6,0.6022 0.105786,1.0661 0.317383,1.3916 0.219717,0.3256 0.585928,0.4883 1.098633,0.4883 0.195302,0 0.394683,-0.033 0.598144,-0.098 0.20344,-0.073 0.419097,-0.1791 0.646973,-0.3174 0.227853,-0.1465 0.467924,-0.3337 0.720215,-0.5615 0.260404,-0.236 0.545235,-0.5127 0.854492,-0.8301 l 0.585937,-3.1739 m -13.134765,-7.2021 0,0"
             style="fill:url(#linearGradient3531);fill-opacity:1"
             id="path3772" />
        </g>
      </g>
    </g>
  </g>
</svg>
